<svg id="visual" viewBox="0 0 1920 1280" width="1920" height="1280" xmlns="http://www.w3.org/2000/svg" xmlns:xlink="http://www.w3.org/1999/xlink" version="1.1"><rect x="0" y="0" width="1920" height="1280" fill="#F1F1F2"></rect><path d="M0 1043L45.7 1033.7C91.3 1024.3 182.7 1005.7 274.2 966C365.7 926.3 457.3 865.7 548.8 847C640.3 828.3 731.7 851.7 823 865.5C914.3 879.3 1005.7 883.7 1097 907.7C1188.3 931.7 1279.7 975.3 1371.2 993.2C1462.7 1011 1554.3 1003 1645.8 981.8C1737.3 960.7 1828.7 926.3 1874.3 909.2L1920 892L1920 1281L1874.3 1281C1828.7 1281 1737.3 1281 1645.8 1281C1554.3 1281 1462.7 1281 1371.2 1281C1279.7 1281 1188.3 1281 1097 1281C1005.7 1281 914.3 1281 823 1281C731.7 1281 640.3 1281 548.8 1281C457.3 1281 365.7 1281 274.2 1281C182.7 1281 91.3 1281 45.7 1281L0 1281Z" fill="#001F60" stroke-linecap="round" stroke-linejoin="miter"></path></svg>